<svg xmlns="http://www.w3.org/2000/svg" xmlns:xlink="http://www.w3.org/1999/xlink" version="1.1" x="0px" y="0px" viewBox="0 0 81.813 81.585" enable-background="new 0 0 81.813 81.585" xml:space="preserve"><g><g><path fill="#e8e8e8" d="M44.873,2.446c-13.465-5.813-21.469,9.813-14.12,19.163C32.176,11.937,38.708,7.375,44.873,2.446z     M14.616,23.626c-3.472,1.906-4.914,5.843-9.077,7.059c1.598,7.577-4.641,14.246,2.017,8.068v-7.059    c6.161-3.368,10.435-13.613,20.171-10.086c-3.051-4.271-1.041-13.372-2.017-17.146c-5.202,1.443-10.108,6.544-7.061,13.111    c-5.634-3.014-17.388,1.233-16.137,5.043C4.809,20.716,13.539,20.96,14.616,23.626z M13.945,38.753c0,0,2.877-4.601,7.313-6.975    c0.824-0.441-7.985,0-7.985,0L13.945,38.753z M33.779,21.608c5.575-7.2,14.416-11.136,27.232-11.094    C53.39-4.303,31.962,11.711,33.779,21.608z M67.063,36.737c-3.7-10.131-18.396-13.015-32.274-11.095    c27.511,6.801-4.269,35.25,0,49.421c2.032,6.749,15.094,11.283,26.222,7.06c-23.024-4.493,1.187-45.024-15.128-53.454    c20.691,5.66-2.267,41.805,13.11,44.377c-4.249-2.781-3.641-5.699-3.049-7.016C61.257,56.311,71.668,49.348,67.063,36.737z     M35.797,22.617c18.77-3.389,33.964,4.848,36.309,21.18C86.421,15.989,49.034,5.956,35.797,22.617z M34.789,28.668    c8.168,10.069,2.536,26.342-14.122,23.196c1.136,2.898,0.205,7.865,2.019,10.086c1.627-6.438,6.64-9.498,16.137-8.069    C42.995,47.099,43.974,30.482,34.789,28.668z M17.585,68.788c-0.096,0.069-0.242,0.198-0.446,0.399    c-0.604,0.459-1.363,0.763-2.371,0.815c-0.081-0.014-0.158-0.03-0.234-0.05c-0.535-0.438-3.771-3.168-3.961-5.483    c0.149-0.22,0.389-0.449,0.781-0.614c0.038-0.011,0.073-0.022,0.111-0.034c2.338-0.229,3.041,1.177,5.169,1.154    c-0.603-1.795,2.955-4.188,0-5.041c-5.859,6.5-18.003-1.564-12.103-10.086c-3.632-0.27-4.86,1.864-8.068,2.017    c6.749,9.724,14.194,18.75,25.213,24.207c-1.135-2.9-0.203-7.866-2.016-10.086C18.963,66.914,18.403,67.981,17.585,68.788z"></path></g></g></svg>